<mxfile host="app.diagrams.net" modified="2023-01-17T04:38:16.846Z" agent="5.0 (Macintosh; Intel Mac OS X 10_15_7) AppleWebKit/537.36 (KHTML, like Gecko) Chrome/109.0.0.0 Safari/537.36" version="20.8.5" etag="F8j2011k67NRa69QvYoj" type="github">
  <diagram id="djCnQhso6iyOhHDn8Vyo" name="Page-1">
    <mxGraphModel dx="1466" dy="879" grid="1" gridSize="10" guides="1" tooltips="1" connect="1" arrows="1" fold="1" page="1" pageScale="1" pageWidth="850" pageHeight="1100" math="0" shadow="0">
      <root>
        <mxCell id="0" />
        <mxCell id="1" parent="0" />
        <mxCell id="cMUxGQzwJz5hEzjKLesb-46" value="Deployed to" style="edgeStyle=orthogonalEdgeStyle;rounded=0;orthogonalLoop=1;jettySize=auto;html=1;fontFamily=Sofia Sans;fontSource=https%3A%2F%2Ffonts.googleapis.com%2Fcss%3Ffamily%3DSofia%2BSans;fontSize=18;fontColor=#0D0D0D;" edge="1" parent="1" source="cMUxGQzwJz5hEzjKLesb-1">
          <mxGeometry relative="1" as="geometry">
            <mxPoint x="600" y="240" as="targetPoint" />
          </mxGeometry>
        </mxCell>
        <mxCell id="cMUxGQzwJz5hEzjKLesb-1" value="Frontend" style="swimlane;whiteSpace=wrap;html=1;fillColor=#ADE1FF;swimlaneFillColor=#D6F0FF;strokeColor=none;swimlaneLine=0;fontFamily=Sofia Sans;fontSource=https%3A%2F%2Ffonts.googleapis.com%2Fcss%3Ffamily%3DSofia%2BSans;fontSize=24;startSize=40;movable=1;resizable=1;rotatable=1;deletable=1;editable=1;connectable=1;rounded=1;autosize=1;" vertex="1" parent="1">
          <mxGeometry x="40" y="40" width="420" height="400" as="geometry" />
        </mxCell>
        <mxCell id="cMUxGQzwJz5hEzjKLesb-14" value="&lt;font style=&quot;font-size: 18px;&quot;&gt;Base&lt;/font&gt;" style="swimlane;horizontal=0;whiteSpace=wrap;html=1;rounded=1;shadow=0;glass=0;comic=0;sketch=0;fontFamily=Sofia Sans;fontSource=https%3A%2F%2Ffonts.googleapis.com%2Fcss%3Ffamily%3DSofia%2BSans;fontSize=24;fontColor=#0D0D0D;fillColor=none;gradientColor=none;startSize=70;movable=1;resizable=1;rotatable=1;deletable=1;editable=1;connectable=1;" vertex="1" parent="cMUxGQzwJz5hEzjKLesb-1">
          <mxGeometry x="20" y="60" width="370" height="130" as="geometry" />
        </mxCell>
        <mxCell id="cMUxGQzwJz5hEzjKLesb-9" value="&lt;font color=&quot;#0d0d0d&quot;&gt;NextJS&lt;/font&gt;" style="rounded=1;whiteSpace=wrap;shadow=0;glass=0;sketch=0;fillColor=#FFFFFF;gradientColor=none;strokeColor=none;fontFamily=Sofia Sans;fontSource=https%3A%2F%2Ffonts.googleapis.com%2Fcss%3Ffamily%3DSofia%2BSans;fontSize=20;fontStyle=1;html=1;" vertex="1" parent="cMUxGQzwJz5hEzjKLesb-14">
          <mxGeometry x="177" y="20" width="80" height="40" as="geometry" />
        </mxCell>
        <mxCell id="cMUxGQzwJz5hEzjKLesb-8" value="&lt;font color=&quot;#0d0d0d&quot;&gt;React&lt;/font&gt;" style="rounded=1;whiteSpace=wrap;shadow=0;glass=0;sketch=0;fillColor=#FFFFFF;gradientColor=none;strokeColor=none;fontFamily=Sofia Sans;fontSource=https%3A%2F%2Ffonts.googleapis.com%2Fcss%3Ffamily%3DSofia%2BSans;fontSize=20;fontStyle=1;html=1;" vertex="1" parent="cMUxGQzwJz5hEzjKLesb-14">
          <mxGeometry x="90" y="20" width="70" height="40" as="geometry" />
        </mxCell>
        <mxCell id="cMUxGQzwJz5hEzjKLesb-15" value="&lt;font color=&quot;#0d0d0d&quot;&gt;Chakra UI&lt;/font&gt;" style="rounded=1;whiteSpace=wrap;shadow=0;glass=0;sketch=0;fillColor=#FFFFFF;gradientColor=none;strokeColor=none;fontFamily=Sofia Sans;fontSource=https%3A%2F%2Ffonts.googleapis.com%2Fcss%3Ffamily%3DSofia%2BSans;fontSize=20;fontStyle=1;html=1;" vertex="1" parent="cMUxGQzwJz5hEzjKLesb-14">
          <mxGeometry x="90" y="70" width="110" height="40" as="geometry" />
        </mxCell>
        <mxCell id="cMUxGQzwJz5hEzjKLesb-25" value="&lt;font color=&quot;#0d0d0d&quot;&gt;TypeScript&lt;br&gt;&lt;/font&gt;" style="rounded=1;whiteSpace=wrap;shadow=0;glass=0;sketch=0;fillColor=#FFFFFF;gradientColor=none;strokeColor=none;fontFamily=Sofia Sans;fontSource=https%3A%2F%2Ffonts.googleapis.com%2Fcss%3Ffamily%3DSofia%2BSans;fontSize=20;fontStyle=1;html=1;" vertex="1" parent="cMUxGQzwJz5hEzjKLesb-14">
          <mxGeometry x="220" y="70" width="120" height="40" as="geometry" />
        </mxCell>
        <mxCell id="cMUxGQzwJz5hEzjKLesb-26" value="&lt;font style=&quot;font-size: 18px;&quot;&gt;Networking&lt;/font&gt;" style="swimlane;horizontal=0;whiteSpace=wrap;html=1;rounded=1;shadow=0;glass=0;comic=0;sketch=0;fontFamily=Sofia Sans;fontSource=https%3A%2F%2Ffonts.googleapis.com%2Fcss%3Ffamily%3DSofia%2BSans;fontSize=24;fontColor=#0D0D0D;fillColor=none;gradientColor=none;startSize=70;movable=1;resizable=1;rotatable=1;deletable=1;editable=1;connectable=1;" vertex="1" parent="1">
          <mxGeometry x="100" y="280" width="290" height="130" as="geometry" />
        </mxCell>
        <mxCell id="cMUxGQzwJz5hEzjKLesb-17" value="&lt;font color=&quot;#0d0d0d&quot;&gt;wagmi + ethers&lt;br&gt;&lt;/font&gt;" style="rounded=1;whiteSpace=wrap;shadow=0;glass=0;sketch=0;fillColor=#FFFFFF;gradientColor=none;strokeColor=none;fontFamily=Sofia Sans;fontSource=https%3A%2F%2Ffonts.googleapis.com%2Fcss%3Ffamily%3DSofia%2BSans;fontSize=20;fontStyle=1;html=1;" vertex="1" parent="cMUxGQzwJz5hEzjKLesb-26">
          <mxGeometry x="90" y="20" width="160" height="40" as="geometry" />
        </mxCell>
        <mxCell id="cMUxGQzwJz5hEzjKLesb-18" value="&lt;font color=&quot;#0d0d0d&quot;&gt;RainbowKit&lt;br&gt;&lt;/font&gt;" style="rounded=1;whiteSpace=wrap;shadow=0;glass=0;sketch=0;fillColor=#FFFFFF;gradientColor=none;strokeColor=none;fontFamily=Sofia Sans;fontSource=https%3A%2F%2Ffonts.googleapis.com%2Fcss%3Ffamily%3DSofia%2BSans;fontSize=20;fontStyle=1;html=1;" vertex="1" parent="cMUxGQzwJz5hEzjKLesb-26">
          <mxGeometry x="90" y="70" width="120" height="40" as="geometry" />
        </mxCell>
        <mxCell id="cMUxGQzwJz5hEzjKLesb-32" style="edgeStyle=orthogonalEdgeStyle;rounded=0;orthogonalLoop=1;jettySize=auto;html=1;entryX=0.5;entryY=0;entryDx=0;entryDy=0;fontFamily=Sofia Sans;fontSource=https%3A%2F%2Ffonts.googleapis.com%2Fcss%3Ffamily%3DSofia%2BSans;fontSize=18;fontColor=#0D0D0D;" edge="1" parent="1" source="cMUxGQzwJz5hEzjKLesb-14" target="cMUxGQzwJz5hEzjKLesb-26">
          <mxGeometry relative="1" as="geometry" />
        </mxCell>
        <mxCell id="cMUxGQzwJz5hEzjKLesb-33" value="Backend" style="swimlane;whiteSpace=wrap;html=1;fillColor=#67C7B4;swimlaneFillColor=#75F0C7;strokeColor=none;swimlaneLine=0;fontFamily=Sofia Sans;fontSource=https%3A%2F%2Ffonts.googleapis.com%2Fcss%3Ffamily%3DSofia%2BSans;fontSize=24;startSize=40;movable=1;resizable=1;rotatable=1;deletable=1;editable=1;connectable=1;rounded=1;autosize=1;" vertex="1" parent="1">
          <mxGeometry x="35" y="500" width="285" height="400" as="geometry" />
        </mxCell>
        <mxCell id="cMUxGQzwJz5hEzjKLesb-34" value="&lt;font style=&quot;font-size: 18px;&quot;&gt;Contracts&lt;/font&gt;" style="swimlane;horizontal=0;whiteSpace=wrap;html=1;rounded=1;shadow=0;glass=0;comic=0;sketch=0;fontFamily=Sofia Sans;fontSource=https%3A%2F%2Ffonts.googleapis.com%2Fcss%3Ffamily%3DSofia%2BSans;fontSize=24;fontColor=#0D0D0D;fillColor=none;gradientColor=none;startSize=70;movable=1;resizable=1;rotatable=1;deletable=1;editable=1;connectable=1;" vertex="1" parent="cMUxGQzwJz5hEzjKLesb-33">
          <mxGeometry x="35" y="60" width="200" height="140" as="geometry" />
        </mxCell>
        <mxCell id="cMUxGQzwJz5hEzjKLesb-35" value="&lt;font color=&quot;#0d0d0d&quot;&gt;Hardhat&lt;/font&gt;" style="rounded=1;whiteSpace=wrap;shadow=0;glass=0;sketch=0;fillColor=#FFFFFF;gradientColor=none;strokeColor=none;fontFamily=Sofia Sans;fontSource=https%3A%2F%2Ffonts.googleapis.com%2Fcss%3Ffamily%3DSofia%2BSans;fontSize=20;fontStyle=1;html=1;" vertex="1" parent="cMUxGQzwJz5hEzjKLesb-34">
          <mxGeometry x="85" y="80" width="90" height="40" as="geometry" />
        </mxCell>
        <mxCell id="cMUxGQzwJz5hEzjKLesb-36" value="&lt;font color=&quot;#0d0d0d&quot;&gt;Solidity&lt;/font&gt;" style="rounded=1;whiteSpace=wrap;shadow=0;glass=0;sketch=0;fillColor=#FFFFFF;gradientColor=none;strokeColor=none;fontFamily=Sofia Sans;fontSource=https%3A%2F%2Ffonts.googleapis.com%2Fcss%3Ffamily%3DSofia%2BSans;fontSize=20;fontStyle=1;html=1;" vertex="1" parent="cMUxGQzwJz5hEzjKLesb-34">
          <mxGeometry x="85" y="20" width="90" height="40" as="geometry" />
        </mxCell>
        <mxCell id="cMUxGQzwJz5hEzjKLesb-39" value="&lt;font style=&quot;font-size: 18px;&quot;&gt;Blockchain&lt;/font&gt;" style="swimlane;horizontal=0;whiteSpace=wrap;html=1;rounded=1;shadow=0;glass=0;comic=0;sketch=0;fontFamily=Sofia Sans;fontSource=https%3A%2F%2Ffonts.googleapis.com%2Fcss%3Ffamily%3DSofia%2BSans;fontSize=24;fontColor=#0D0D0D;fillColor=none;gradientColor=none;startSize=70;movable=1;resizable=1;rotatable=1;deletable=1;editable=1;connectable=1;" vertex="1" parent="cMUxGQzwJz5hEzjKLesb-33">
          <mxGeometry x="20" y="240" width="230" height="130" as="geometry" />
        </mxCell>
        <mxCell id="cMUxGQzwJz5hEzjKLesb-40" value="&lt;font color=&quot;#0d0d0d&quot;&gt;Ethereum&lt;br&gt;&lt;/font&gt;" style="rounded=1;whiteSpace=wrap;shadow=0;glass=0;sketch=0;fillColor=#FFFFFF;gradientColor=none;strokeColor=none;fontFamily=Sofia Sans;fontSource=https%3A%2F%2Ffonts.googleapis.com%2Fcss%3Ffamily%3DSofia%2BSans;fontSize=20;fontStyle=1;html=1;" vertex="1" parent="cMUxGQzwJz5hEzjKLesb-39">
          <mxGeometry x="85" y="45" width="110" height="40" as="geometry" />
        </mxCell>
        <mxCell id="cMUxGQzwJz5hEzjKLesb-42" style="edgeStyle=orthogonalEdgeStyle;orthogonalLoop=1;jettySize=auto;html=1;entryX=0.5;entryY=0;entryDx=0;entryDy=0;fontFamily=Sofia Sans;fontSource=https%3A%2F%2Ffonts.googleapis.com%2Fcss%3Ffamily%3DSofia%2BSans;fontSize=18;fontColor=#0D0D0D;targetPerimeterSpacing=6;startArrow=classic;startFill=1;strokeColor=default;curved=1;" edge="1" parent="cMUxGQzwJz5hEzjKLesb-33" source="cMUxGQzwJz5hEzjKLesb-34" target="cMUxGQzwJz5hEzjKLesb-39">
          <mxGeometry relative="1" as="geometry" />
        </mxCell>
        <mxCell id="cMUxGQzwJz5hEzjKLesb-49" style="edgeStyle=orthogonalEdgeStyle;rounded=1;orthogonalLoop=1;jettySize=auto;html=1;fontFamily=Sofia Sans;fontSource=https%3A%2F%2Ffonts.googleapis.com%2Fcss%3Ffamily%3DSofia%2BSans;fontSize=18;fontColor=#0D0D0D;endArrow=classic;endFill=1;startArrow=classic;startFill=1;targetPerimeterSpacing=6;sourcePerimeterSpacing=0;" edge="1" parent="1" source="cMUxGQzwJz5hEzjKLesb-45" target="cMUxGQzwJz5hEzjKLesb-47">
          <mxGeometry relative="1" as="geometry" />
        </mxCell>
        <mxCell id="cMUxGQzwJz5hEzjKLesb-45" value="Vercel" style="ellipse;shape=cloud;whiteSpace=wrap;html=1;rounded=1;shadow=0;glass=0;comic=0;sketch=0;fontFamily=Sofia Sans;fontSource=https%3A%2F%2Ffonts.googleapis.com%2Fcss%3Ffamily%3DSofia%2BSans;fontSize=18;fontColor=#FFFFFF;fillColor=#0D0D0D;gradientColor=none;" vertex="1" parent="1">
          <mxGeometry x="600" y="180" width="195" height="130" as="geometry" />
        </mxCell>
        <mxCell id="cMUxGQzwJz5hEzjKLesb-47" value="Browser" style="ellipse;whiteSpace=wrap;html=1;rounded=1;shadow=0;glass=0;comic=0;sketch=0;fontFamily=Sofia Sans;fontSource=https%3A%2F%2Ffonts.googleapis.com%2Fcss%3Ffamily%3DSofia%2BSans;fontSize=18;fontColor=#0D0D0D;fillColor=#0DFCEC;gradientColor=none;strokeColor=none;" vertex="1" parent="1">
          <mxGeometry x="570" y="360" width="120" height="80" as="geometry" />
        </mxCell>
        <mxCell id="cMUxGQzwJz5hEzjKLesb-52" style="edgeStyle=orthogonalEdgeStyle;curved=1;orthogonalLoop=1;jettySize=auto;html=1;entryX=0.5;entryY=1;entryDx=0;entryDy=0;fontFamily=Sofia Sans;fontSource=https%3A%2F%2Ffonts.googleapis.com%2Fcss%3Ffamily%3DSofia%2BSans;fontSize=18;fontColor=#0D0D0D;startArrow=classic;startFill=1;endArrow=classic;endFill=1;sourcePerimeterSpacing=0;targetPerimeterSpacing=6;" edge="1" parent="1" source="cMUxGQzwJz5hEzjKLesb-51" target="cMUxGQzwJz5hEzjKLesb-47">
          <mxGeometry relative="1" as="geometry" />
        </mxCell>
        <mxCell id="cMUxGQzwJz5hEzjKLesb-53" style="edgeStyle=orthogonalEdgeStyle;curved=1;orthogonalLoop=1;jettySize=auto;html=1;entryX=1;entryY=0.5;entryDx=0;entryDy=0;fontFamily=Sofia Sans;fontSource=https%3A%2F%2Ffonts.googleapis.com%2Fcss%3Ffamily%3DSofia%2BSans;fontSize=18;fontColor=#0D0D0D;startArrow=classic;startFill=1;endArrow=classic;endFill=1;sourcePerimeterSpacing=0;targetPerimeterSpacing=6;" edge="1" parent="1" source="cMUxGQzwJz5hEzjKLesb-51" target="cMUxGQzwJz5hEzjKLesb-26">
          <mxGeometry relative="1" as="geometry" />
        </mxCell>
        <mxCell id="cMUxGQzwJz5hEzjKLesb-54" style="edgeStyle=orthogonalEdgeStyle;curved=1;orthogonalLoop=1;jettySize=auto;html=1;entryX=1;entryY=0.5;entryDx=0;entryDy=0;fontFamily=Sofia Sans;fontSource=https%3A%2F%2Ffonts.googleapis.com%2Fcss%3Ffamily%3DSofia%2BSans;fontSize=18;fontColor=#0D0D0D;startArrow=classic;startFill=1;endArrow=classic;endFill=1;sourcePerimeterSpacing=0;targetPerimeterSpacing=6;" edge="1" parent="1" source="cMUxGQzwJz5hEzjKLesb-51" target="cMUxGQzwJz5hEzjKLesb-34">
          <mxGeometry relative="1" as="geometry" />
        </mxCell>
        <mxCell id="cMUxGQzwJz5hEzjKLesb-51" value="Wallet" style="shape=hexagon;perimeter=hexagonPerimeter2;whiteSpace=wrap;html=1;fixedSize=1;rounded=1;shadow=0;glass=0;comic=0;sketch=0;fontFamily=Sofia Sans;fontSource=https%3A%2F%2Ffonts.googleapis.com%2Fcss%3Ffamily%3DSofia%2BSans;fontSize=18;fontColor=#0D0D0D;fillColor=#ED8A09;gradientColor=none;strokeColor=none;" vertex="1" parent="1">
          <mxGeometry x="570" y="490" width="120" height="80" as="geometry" />
        </mxCell>
        <mxCell id="cMUxGQzwJz5hEzjKLesb-55" style="edgeStyle=orthogonalEdgeStyle;curved=1;orthogonalLoop=1;jettySize=auto;html=1;strokeColor=default;fontFamily=Sofia Sans;fontSource=https%3A%2F%2Ffonts.googleapis.com%2Fcss%3Ffamily%3DSofia%2BSans;fontSize=18;fontColor=#12EDFC;startArrow=classic;startFill=1;endArrow=classic;endFill=1;sourcePerimeterSpacing=0;targetPerimeterSpacing=6;" edge="1" parent="1" source="cMUxGQzwJz5hEzjKLesb-26">
          <mxGeometry relative="1" as="geometry">
            <mxPoint x="230" y="560" as="targetPoint" />
          </mxGeometry>
        </mxCell>
      </root>
    </mxGraphModel>
  </diagram>
</mxfile>
